<?xml version="1.0" encoding="UTF-8"?>
<svg id="Layer_1" data-name="Layer 1" xmlns="http://www.w3.org/2000/svg" xmlns:xlink="http://www.w3.org/1999/xlink" version="1.1" viewBox="0 0 1920 424">
  <defs>
    <style>
      .cls-1 {
        fill: #828282;
        fill-opacity: .1;
      }

      .cls-1, .cls-2, .cls-3, .cls-4, .cls-5 {
        stroke-width: 0px;
      }

      .cls-6 {
        clip-path: url(#clippath);
      }

      .cls-2, .cls-7 {
        fill: none;
      }

      .cls-3 {
        fill: #fafafa;
      }

      .cls-4 {
        fill-rule: evenodd;
      }

      .cls-4, .cls-5 {
        fill: #fff;
      }

      .cls-7 {
        stroke: #d9d9d9;
        stroke-dasharray: 0 0 8 20;
        stroke-linecap: square;
        stroke-opacity: .6;
        stroke-width: 5px;
      }
    </style>
    <clipPath id="clippath">
      <rect class="cls-2" width="1920" height="424"/>
    </clipPath>
  </defs>
  <g class="cls-6">
    <g>
      <rect class="cls-3" width="1920" height="424"/>
      <circle class="cls-7" cx="1655" cy="116" r="278.5"/>
      <circle class="cls-7" cx="362.5" cy="315.5" r="404"/>
      <path class="cls-4" d="M1342,101h23v30h-23v-30ZM1339,101c0-1.7,1.3-3,3-3h23c1.7,0,3,1.3,3,3v30c0,1.7-1.3,3-3,3h-23c-1.7,0-3-1.3-3-3v-30ZM1348,108c0,.8-.7,1.5-1.5,1.5s-1.5-.7-1.5-1.5.7-1.5,1.5-1.5,1.5.7,1.5,1.5ZM1348,115c0,.8-.7,1.5-1.5,1.5s-1.5-.7-1.5-1.5.7-1.5,1.5-1.5,1.5.7,1.5,1.5ZM1346.5,123.5c.8,0,1.5-.7,1.5-1.5s-.7-1.5-1.5-1.5-1.5.7-1.5,1.5.7,1.5,1.5,1.5ZM1350,108c0-.8.7-1.5,1.5-1.5h8c.8,0,1.5.7,1.5,1.5s-.7,1.5-1.5,1.5h-8c-.8,0-1.5-.7-1.5-1.5ZM1351.5,113.5c-.8,0-1.5.7-1.5,1.5s.7,1.5,1.5,1.5h8c.8,0,1.5-.7,1.5-1.5s-.7-1.5-1.5-1.5h-8ZM1350,122c0-.8.7-1.5,1.5-1.5h8c.8,0,1.5.7,1.5,1.5s-.7,1.5-1.5,1.5h-8c-.8,0-1.5-.7-1.5-1.5Z"/>
      <path class="cls-5" d="M1397,108.4h12.1v1.9h-12.1v-1.9ZM1396.3,120.1h13.1v2h-13.1v-2ZM1401.8,107h2.3v5.2h-2.3v-5.2ZM1400.6,114.9v.8h4.8v-.8h-4.8ZM1400.6,117v.8h4.8v-.8h-4.8ZM1400.6,112.7v.8h4.8v-.8h-4.8ZM1398.4,111.3h9.3v8h-9.3v-8ZM1403.7,123.1l1.7-1.2c1.5.8,3.2,2,4.2,2.7l-2.2,1.1c-.8-.7-2.3-1.9-3.6-2.7ZM1400,122.1l2.3.8c-1.2,1.2-3.1,2.3-4.8,3-.4-.5-1.3-1.3-1.8-1.7,1.6-.5,3.3-1.3,4.3-2.1ZM1390.9,111.8h6.1v2.3h-6.1v-2.3ZM1392.9,107.3h2.2v13.3h-2.2v-13.3ZM1390.4,120.4c1.6-.6,4.1-1.6,6.5-2.6l.6,2.2c-2.1,1-4.4,2-6.2,2.8l-.9-2.4ZM1418.8,107h2.4v2.7h-2.4v-2.7ZM1411.3,108.4h17.4v4.1h-2.3v-2.1h-12.9v2.1h-2.2v-4.1ZM1418.3,110.6l1.4,1.5c-1.4.6-3.2,1-4.7,1.2,0-.4-.3-1-.6-1.4,1.4-.3,2.9-.8,3.8-1.3ZM1413.7,111.5l2.1.4v5.4h-2.1v-5.8ZM1413.7,116.3h10.3v-3.2h-3.6v-1.6h5.8v6.4h-12.5v-1.6ZM1414.4,113.9h4.8v1.6h-4.8v-1.6ZM1420.8,113.9h4.3v1.6h-4.3v-1.6ZM1416.4,117l2.1.6c-1.4,2.4-3.9,4.2-6.4,5.3-.3-.5-1-1.4-1.4-1.9,2.4-.8,4.6-2.3,5.7-4.1ZM1416.1,118.8h10.5v1.9h-12.4l1.9-1.9ZM1425.8,118.8h2.4s0,.6,0,.8c-.2,3.3-.4,4.7-.9,5.3-.4.5-.9.6-1.5.7-.6,0-1.5,0-2.5,0,0-.6-.3-1.5-.6-2.1.8,0,1.6,0,2,0,.3,0,.5,0,.7-.2.3-.3.5-1.5.6-4.4v-.3ZM1414,121.1l1.9.6c-.3,1.4-.8,2.9-1.7,3.9l-1.8-1c.9-.8,1.4-2.2,1.6-3.5ZM1416.5,121.6l1.8-.2c.4,1.1.6,2.6.6,3.5l-1.9.2c0-.9-.1-2.4-.5-3.6ZM1419.2,121.6l1.7-.4c.5.9.9,2.1,1,2.9l-1.8.5c0-.8-.5-2-.9-3ZM1421.8,121.5l1.5-.7c.6.6,1.1,1.4,1.4,1.9l-1.6.7c-.2-.6-.8-1.4-1.3-2ZM1431.8,108.3h16.4v2h-16.4v-2ZM1432.8,111.4h14.7v1.9h-14.7v-1.9ZM1431.1,114.4h17.8v2h-17.8v-2ZM1438.7,107h2.4v9.1h-2.4v-9.1ZM1438.7,115.2l2.1,1c-2.1,2.3-5.7,4.3-8.9,5.3-.4-.6-1-1.5-1.5-2,3.2-.8,6.6-2.5,8.4-4.4ZM1442.2,115.6c1,4,3.3,6.9,7.4,8.1-.5.5-1.2,1.5-1.6,2.1-4.5-1.6-6.7-4.9-8-9.8l2.2-.4ZM1446.8,116.8l2,1.5c-1.5,1.1-3.3,2.2-4.7,2.9l-1.5-1.3c1.3-.8,3.1-2.1,4.2-3.1ZM1432.5,123.5c2.4-.4,6.1-1.2,9.5-1.9l.2,2.2c-3.1.7-6.5,1.5-9,2l-.7-2.2ZM1435.2,119.5l1.6-1.6.8.2v5.8h-2.4v-4.4ZM1458.7,113.7h2.5v12.1h-2.5v-12.1ZM1455.3,117.2v1.1h9.5v-1.1h-9.5ZM1455.3,114.5v1.1h9.5v-1.1h-9.5ZM1452.9,112.6h14.3v7.5h-14.3v-7.5ZM1451.1,121.2h17.9v2.1h-17.9v-2.1ZM1454.4,109.2v1.2h2.8v-1.2h-2.8ZM1452.2,107.8h7.2v4h-7.2v-4ZM1462.7,109.2v1.2h2.9v-1.2h-2.9ZM1460.6,107.8h7.2v4h-7.2v-4Z"/>
      <ellipse class="cls-1" cx="154.5" cy="393" rx="120.5" ry="121"/>
      <circle class="cls-1" cx="1856" cy="308" r="47"/>
      <circle class="cls-1" cx="1244.5" cy="417.5" r="24.5"/>
      <circle class="cls-1" cx="695.5" cy="87.5" r="24.5"/>
    </g>
  </g>
</svg>